<?xml version="1.0" encoding="UTF-8" standalone="no"?>
<!DOCTYPE svg PUBLIC "-//W3C//DTD SVG 1.1//EN" "http://www.w3.org/Graphics/SVG/1.1/DTD/svg11.dtd">
<svg width="100%" height="100%" viewBox="0 0 737 123" version="1.1" xmlns="http://www.w3.org/2000/svg" xmlns:xlink="http://www.w3.org/1999/xlink" xml:space="preserve" xmlns:serif="http://www.serif.com/" style="fill-rule:evenodd;clip-rule:evenodd;stroke-linejoin:round;stroke-miterlimit:2;">
    <g transform="matrix(1,0,0,1,-1307.96,-761.774)">
        <g id="Text" transform="matrix(1,0,0,0.622941,1120.65,336.643)">
            <rect x="187.313" y="682.457" width="736.958" height="196.854" style="fill:none;"/>
            <g transform="matrix(0.583888,0,0,0.93731,-394.149,-140.274)">
                <g transform="matrix(192,0,0,192,1007.89,1050.92)">
                    <path d="M0.137,-0L0.137,-0.129L0.363,-0.129C0.394,-0.129 0.418,-0.136 0.434,-0.151C0.451,-0.166 0.459,-0.187 0.459,-0.213L0.459,-0.215C0.459,-0.242 0.451,-0.263 0.434,-0.278C0.418,-0.292 0.394,-0.3 0.363,-0.3L0.137,-0.3L0.137,-0.429L0.363,-0.429C0.391,-0.429 0.412,-0.436 0.427,-0.45C0.443,-0.464 0.45,-0.483 0.45,-0.509C0.45,-0.532 0.443,-0.55 0.427,-0.562C0.412,-0.575 0.391,-0.581 0.363,-0.581L0.137,-0.581L0.137,-0.71L0.368,-0.71C0.437,-0.71 0.49,-0.693 0.528,-0.66C0.566,-0.626 0.585,-0.579 0.585,-0.518C0.585,-0.476 0.573,-0.442 0.549,-0.415C0.524,-0.388 0.49,-0.371 0.446,-0.364C0.493,-0.357 0.53,-0.339 0.555,-0.31C0.581,-0.28 0.594,-0.242 0.594,-0.195L0.594,-0.193C0.594,-0.132 0.575,-0.084 0.537,-0.051C0.499,-0.017 0.445,-0 0.376,-0L0.137,-0ZM0.078,-0L0.078,-0.71L0.212,-0.71L0.212,-0L0.078,-0Z" style="fill:rgb(108,117,125);fill-rule:nonzero;"/>
                </g>
                <g transform="matrix(192,0,0,192,1131.83,1050.92)">
                    <rect x="0.068" y="-0.71" width="0.139" height="0.71" style="fill:rgb(108,117,125);fill-rule:nonzero;"/>
                </g>
                <g transform="matrix(192,0,0,192,1192.2,1050.92)">
                    <path d="M0.174,-0L0.174,-0.652L0.308,-0.652L0.308,-0L0.174,-0ZM-0.02,-0.581L-0.02,-0.71L0.501,-0.71L0.501,-0.581L-0.02,-0.581Z" style="fill:rgb(108,117,125);fill-rule:nonzero;"/>
                </g>
                <g transform="matrix(192,0,0,192,1295.89,1050.92)">
                    <path d="M0.234,-0.236L0.37,-0.71L0.477,-0.71L0.613,-0.236L0.704,-0.71L0.842,-0.71L0.678,-0L0.552,-0L0.426,-0.496L0.294,-0L0.168,-0L0.005,-0.71L0.143,-0.71L0.234,-0.236Z" style="fill:rgb(108,117,125);fill-rule:nonzero;"/>
                </g>
                <g transform="matrix(192,0,0,192,1459.39,1050.92)">
                    <rect x="0.068" y="-0.71" width="0.139" height="0.71" style="fill:rgb(108,117,125);fill-rule:nonzero;"/>
                </g>
                <g transform="matrix(192,0,0,192,1512.27,1050.92)">
                    <path d="M0.337,-0.397L0.583,-0.397L0.583,-0.258C0.583,-0.205 0.572,-0.158 0.551,-0.118C0.529,-0.079 0.499,-0.048 0.461,-0.026C0.422,-0.004 0.377,0.007 0.325,0.007C0.272,0.007 0.227,-0.003 0.187,-0.024C0.148,-0.044 0.118,-0.073 0.096,-0.111C0.074,-0.149 0.063,-0.193 0.063,-0.243L0.063,-0.452C0.063,-0.506 0.074,-0.552 0.096,-0.592C0.117,-0.632 0.147,-0.662 0.186,-0.684C0.224,-0.706 0.27,-0.717 0.322,-0.717C0.365,-0.717 0.404,-0.708 0.439,-0.691C0.475,-0.673 0.504,-0.649 0.528,-0.617C0.552,-0.586 0.569,-0.549 0.577,-0.506L0.433,-0.506C0.425,-0.529 0.411,-0.547 0.39,-0.56C0.369,-0.572 0.346,-0.579 0.322,-0.579C0.286,-0.579 0.257,-0.567 0.235,-0.544C0.213,-0.521 0.202,-0.49 0.202,-0.452L0.202,-0.243C0.202,-0.209 0.213,-0.182 0.236,-0.162C0.258,-0.141 0.288,-0.131 0.325,-0.131C0.361,-0.131 0.39,-0.142 0.412,-0.164C0.433,-0.186 0.444,-0.217 0.444,-0.256L0.444,-0.268L0.337,-0.268L0.337,-0.397Z" style="fill:rgb(108,117,125);fill-rule:nonzero;"/>
                </g>
                <g transform="matrix(192,0,0,192,1634.52,1050.92)">
                    <path d="M0.137,-0L0.137,-0.129L0.363,-0.129C0.394,-0.129 0.418,-0.136 0.434,-0.151C0.451,-0.166 0.459,-0.187 0.459,-0.213L0.459,-0.215C0.459,-0.242 0.451,-0.263 0.434,-0.278C0.418,-0.292 0.394,-0.3 0.363,-0.3L0.137,-0.3L0.137,-0.429L0.363,-0.429C0.391,-0.429 0.412,-0.436 0.427,-0.45C0.443,-0.464 0.45,-0.483 0.45,-0.509C0.45,-0.532 0.443,-0.55 0.427,-0.562C0.412,-0.575 0.391,-0.581 0.363,-0.581L0.137,-0.581L0.137,-0.71L0.368,-0.71C0.437,-0.71 0.49,-0.693 0.528,-0.66C0.566,-0.626 0.585,-0.579 0.585,-0.518C0.585,-0.476 0.573,-0.442 0.549,-0.415C0.524,-0.388 0.49,-0.371 0.446,-0.364C0.493,-0.357 0.53,-0.339 0.555,-0.31C0.581,-0.28 0.594,-0.242 0.594,-0.195L0.594,-0.193C0.594,-0.132 0.575,-0.084 0.537,-0.051C0.499,-0.017 0.445,-0 0.376,-0L0.137,-0ZM0.078,-0L0.078,-0.71L0.212,-0.71L0.212,-0L0.078,-0Z" style="fill:rgb(255,142,20);fill-rule:nonzero;"/>
                </g>
                <g transform="matrix(192,0,0,192,1755.64,1050.92)">
                    <path d="M0.327,0.007C0.245,0.007 0.181,-0.016 0.136,-0.062C0.091,-0.108 0.068,-0.173 0.068,-0.257L0.068,-0.71L0.202,-0.71L0.202,-0.253C0.202,-0.213 0.213,-0.181 0.235,-0.159C0.257,-0.136 0.287,-0.125 0.327,-0.125C0.367,-0.125 0.398,-0.136 0.42,-0.159C0.442,-0.181 0.453,-0.213 0.453,-0.253L0.453,-0.71L0.587,-0.71L0.587,-0.257C0.587,-0.173 0.564,-0.108 0.519,-0.062C0.474,-0.016 0.41,0.007 0.327,0.007Z" style="fill:rgb(255,142,20);fill-rule:nonzero;"/>
                </g>
                <g transform="matrix(192,0,0,192,1879.58,1050.92)">
                    <path d="M0.146,-0L0.146,-0.129L0.316,-0.129C0.36,-0.129 0.394,-0.14 0.418,-0.161C0.442,-0.182 0.454,-0.212 0.454,-0.25L0.454,-0.459C0.454,-0.498 0.442,-0.528 0.418,-0.549C0.394,-0.57 0.36,-0.581 0.316,-0.581L0.146,-0.581L0.146,-0.71L0.313,-0.71C0.402,-0.71 0.471,-0.688 0.52,-0.643C0.568,-0.599 0.593,-0.536 0.593,-0.456L0.593,-0.254C0.593,-0.204 0.582,-0.16 0.562,-0.121C0.541,-0.083 0.51,-0.053 0.468,-0.032C0.427,-0.011 0.375,-0 0.313,-0L0.146,-0ZM0.078,-0L0.078,-0.71L0.212,-0.71L0.212,-0L0.078,-0Z" style="fill:rgb(255,142,20);fill-rule:nonzero;"/>
                </g>
                <g transform="matrix(192,0,0,192,2003.7,1050.92)">
                    <path d="M0.146,-0L0.146,-0.129L0.316,-0.129C0.36,-0.129 0.394,-0.14 0.418,-0.161C0.442,-0.182 0.454,-0.212 0.454,-0.25L0.454,-0.459C0.454,-0.498 0.442,-0.528 0.418,-0.549C0.394,-0.57 0.36,-0.581 0.316,-0.581L0.146,-0.581L0.146,-0.71L0.313,-0.71C0.402,-0.71 0.471,-0.688 0.52,-0.643C0.568,-0.599 0.593,-0.536 0.593,-0.456L0.593,-0.254C0.593,-0.204 0.582,-0.16 0.562,-0.121C0.541,-0.083 0.51,-0.053 0.468,-0.032C0.427,-0.011 0.375,-0 0.313,-0L0.146,-0ZM0.078,-0L0.078,-0.71L0.212,-0.71L0.212,-0L0.078,-0Z" style="fill:rgb(255,142,20);fill-rule:nonzero;"/>
                </g>
                <g transform="matrix(192,0,0,192,2129.7,1050.92)">
                    <path d="M0.527,-0.71L0.318,-0.274L0.318,-0L0.185,-0L0.185,-0.274L-0.024,-0.71L0.116,-0.71L0.251,-0.404L0.387,-0.71L0.527,-0.71Z" style="fill:rgb(255,142,20);fill-rule:nonzero;"/>
                </g>
                <g transform="matrix(192,0,0,192,2226.27,1050.92)">
                </g>
            </g>
        </g>
    </g>
</svg>
